***************************************************************

[IMG]http://www.hotimg.org/images/67363952943939111394.png[/IMG]

***************************************************************

[IMG]http://www.hotimg.org/images/23125108119173955909.jpg[/IMG]

***************************************************************

FILM TITLE: Don't Be Afraid of the Dark (2010)

***************************************************************

Genre: Horror | Thriller    

Rated R for violence and terror

Release: 26 August 2011 (USA)

Director: Troy Nixey

Writer: Guillermo del Toro (screenplay), Matthew Robbins (screenplay)

Stars: Katie Holmes, Guy Pearce and Bailee Madison

Country:  USA | Australia | Mexico

Language:  English

Plot:
A young girl sent to live with her father and his new girlfriend discovers 
creatures in her new home who want to claim her as one of their own.

IMDB Rating: 5.7/10 from 14,287 users   Metascore: 56/100
 
http://www.imdb.com/title/tt1270761/

****************************************************************

[URL=http://www.hotimg.org/viewer.php?file=73755673901678294200.png][IMG]http://www.hotimg.org/images/73755673901678294200_thumb.png[/IMG][/URL]
[URL=http://www.hotimg.org/viewer.php?file=84990004412584090873.png][IMG]http://www.hotimg.org/images/84990004412584090873_thumb.png[/IMG][/URL]
[URL=http://www.hotimg.org/viewer.php?file=00105732705103942314.png][IMG]http://www.hotimg.org/images/00105732705103942314_thumb.png[/IMG][/URL]
[URL=http://www.hotimg.org/viewer.php?file=68113274645882755251.png][IMG]http://www.hotimg.org/images/68113274645882755251_thumb.png[/IMG][/URL]

****************************************************************

General
Complete name                    : Don't Be Afraid Of The Dark 2011 720p BDRip XviD ac3 (avi) [GREYSHADOW].avi
Format                           : AVI
Format/Info                      : Audio Video Interleave
Format profile                   : OpenDML
File size                        : 3.23 GiB
Duration                         : 1h 39mn
Overall bit rate                 : 4643 Kbps
Writing library                  : VirtualDub build 32842/release

Video
ID                               : 0
Format                           : MPEG-4 Visual
Format profile                   : Simple@L5
Format settings, BVOP            : No
Format settings, QPel            : No
Format settings, GMC             : No warppoints
Format settings, Matrix          : Default (H.263)
Codec ID                         : XVID
Codec ID/Hint                    : XviD
Duration                         : 1h 39mn
Bit rate                         : 3 993 Kbps
Width                            : 1280 pixels
Height                           : 688 pixels
Display aspect ratio             : 1.860
Frame rate                       : 23.976 fps
Color space                      : YUV
Chroma subsampling               : 4:2:0
Bit depth                        : 8 bits
Scan type                        : Progressive
Compression mode                 : Lossy
Bits/(Pixel*Frame)               : 0.189
Stream size                      : 2.78 GiB (86%)
Writing library                  : XviD 64

Audio
ID                               : 1
Format                           : AC-3
Format/Info                      : Audio Coding 3
Mode extension                   : CM (complete main)
Codec ID                         : 2000
Duration                         : 1h 39mn
Bit rate mode                    : Constant
Bit rate                         : 640 Kbps
Channel(s)                       : 6 channels
Channel positions                : Front: L C R, Side: L R, LFE
Sampling rate                    : 48.0 KHz
Bit depth                        : 16 bits
Compression mode                 : Lossy
Stream size                      : 456 MiB (14%)
Alignment                        : Aligned on interleaves
Interleave, duration             : 42 ms (1.00 video frame)
Interleave, preload duration     : 512 ms

****************************************************************

Video Source: Don't Be Afraid Of The Dark 2010 BluRay 1080p AVC DTS-HD Ma5.1-CHDBits

Thanks: CHP (chdbits.org)

****************************************************************

I provide a small sample, so please download this to check your 
compatibility first if you are unsure.

****************************************************************

Hash: E2FB55280055CB65A5E3DC74BA6A9C1406FB7ED5

Trackers:
.udp://tracker.1337x.org:80/announce

****************************************************************